<?xml version="1.0" encoding="UTF-8" standalone="no"?>
<!DOCTYPE svg PUBLIC "-//W3C//DTD SVG 1.1//EN" "http://www.w3.org/Graphics/SVG/1.1/DTD/svg11.dtd">
<!-- Created with Vectornator (http://vectornator.io/) -->
<svg height="100%" stroke-miterlimit="10" style="fill-rule:nonzero;clip-rule:evenodd;stroke-linecap:round;stroke-linejoin:round;" version="1.1" viewBox="4.30506 26.2834 504.26 667.827" width="100%" xml:space="preserve" xmlns="http://www.w3.org/2000/svg" xmlns:xlink="http://www.w3.org/1999/xlink">
<defs/>
<g id="Untitled">
<path d="M5.05506 206.954C5.05506 202.812 8.41293 199.454 12.5551 199.454L268.037 199.454C272.179 199.454 275.537 202.812 275.537 206.954L275.537 284.378L275.537 344.07C275.537 348.212 272.179 351.57 268.037 351.57L12.5551 351.57C8.41293 351.57 5.05506 348.212 5.05506 344.07L5.05506 206.954Z" fill="#FCFCFC" opacity="1" stroke="#e4e4e4" stroke-linecap="butt" stroke-linejoin="miter" stroke-width="1.5"/>
<path d="M5.05506 34.5334C5.05506 30.3913 8.41293 27.0334 12.5551 27.0334L268.037 27.0334C272.179 27.0334 275.537 30.3913 275.537 34.5334L275.537 111.957L275.537 171.65C275.537 175.792 272.179 179.15 268.037 179.15L12.5551 179.15C8.41293 179.15 5.05506 175.792 5.05506 171.65L5.05506 34.5334Z" fill="#FCFCFC" opacity="1" stroke="#e4e4e4" stroke-linecap="butt" stroke-linejoin="miter" stroke-width="1.5"/>
<path d="M5.05506 378.615C5.05506 374.473 8.41293 371.115 12.5551 371.115L268.037 371.115C272.179 371.115 275.537 374.473 275.537 378.615L275.537 456.039L275.537 515.731C275.537 519.874 272.179 523.231 268.037 523.231L12.5551 523.231C8.41293 523.231 5.05506 519.874 5.05506 515.731L5.05506 378.615Z" fill="#FCFCFC" opacity="1" stroke="#e4e4e4" stroke-linecap="butt" stroke-linejoin="miter" stroke-width="1.5"/>
<path d="M15.2421 76.0742C15.2421 51.1989 35.4075 31.0334 60.2828 31.0334C85.1582 31.0334 105.324 51.1989 105.324 76.0742C105.324 100.949 85.1582 121.115 60.2828 121.115C35.4075 121.115 15.2421 100.949 15.2421 76.0742Z" fill="#f2f2f2" fill-rule="nonzero" opacity="1" stroke="none"/>
<path d="M41.5555 52.8144C41.5555 49.3025 44.4025 46.4554 47.9145 46.4554C51.4265 46.4554 54.2735 49.3025 54.2735 52.8144C54.2735 56.3264 51.4265 59.1734 47.9145 59.1734C44.4025 59.1734 41.5555 56.3264 41.5555 52.8144Z" fill="#2f2e41" fill-rule="nonzero" opacity="1" stroke="none"/>
<path d="M41.9794 67.2282C41.9794 58.3312 49.1919 51.1187 58.0889 51.1187C66.9859 51.1187 74.1983 58.3312 74.1983 67.2282C74.1983 76.1252 66.9859 83.3376 58.0889 83.3376C49.1919 83.3376 41.9794 76.1252 41.9794 67.2282Z" fill="#2f2e41" fill-rule="nonzero" opacity="1" stroke="none"/>
<path d="M46.3312 70.2429C46.3312 63.013 52.1921 57.1521 59.4219 57.1521C66.6517 57.1521 72.5127 63.013 72.5127 70.2429C72.5127 77.4727 66.6517 83.3336 59.4219 83.3336C52.1921 83.3336 46.3312 77.4727 46.3312 70.2429Z" fill="#9e616a" fill-rule="nonzero" opacity="1" stroke="none"/>
<path d="M68.3119 56.8987C63.6397 54.0503 57.7869 53.9731 53.0413 56.6973C48.2956 59.4215 45.4107 64.5144 45.5141 69.9854C52.1845 71.6601 59.1922 72.9417 66.3057 70.3859L67.9856 66.2745L68.976 70.389C71.1423 71.2744 73.3142 72.0236 75.4861 70.3804C75.6666 64.9295 72.9338 59.794 68.3119 56.8987Z" fill="#2f2e41" fill-rule="nonzero" opacity="1" stroke="none"/>
<path d="M41.9939 35.5522C37.4394 33.6082 32.1763 34.419 28.418 37.6435C24.7585 40.9455 22.9958 45.8608 23.7228 50.7359C24.4439 55.6178 27.4118 59.8218 30.1475 63.929C32.8832 68.0362 35.5559 72.5367 35.5529 77.4716C35.5483 84.8721 29.5555 90.8732 22.155 90.8878C26.3266 92.6837 30.6806 94.5148 35.2174 94.302C39.7542 94.0891 44.5094 91.1725 45.2494 86.6914C45.7827 83.4627 44.1986 80.3142 42.8774 77.3202C40.7254 72.4416 39.1699 67.3213 38.2447 62.07C37.644 59.585 37.6745 56.9891 38.3332 54.5188C39.6691 50.8521 43.2452 48.4899 47.1419 48.6999L48.6409 47.3513C49.1672 42.4034 46.4984 37.666 41.9939 35.5522Z" fill="#2f2e41" fill-rule="nonzero" opacity="1" stroke="none"/>
<path d="M94.1726 106.21C77.9368 124.684 49.881 126.711 31.1576 110.764L35.0209 99.9842C36.7999 96.0826 40.5874 93.4818 44.8676 93.2225L47.3253 93.0717L53.1857 88.0173C53.1857 88.0173 68.9762 87.4535 68.7419 87.1835L78.3067 92.9367L78.2988 92.897L82.0588 93.1272C86.3393 93.3854 90.1273 95.9866 91.9055 99.8889L94.1726 106.21Z" fill="#075e54" fill-rule="nonzero" opacity="1" stroke="none"/>
<path d="M110.048 249.701C110.004 274.577 89.8028 294.706 64.9275 294.662C40.0522 294.618 19.9226 274.417 19.9667 249.542C20.0108 224.666 40.2119 204.537 65.0872 204.581C77.0423 204.571 88.5082 209.327 96.9467 217.795C105.385 226.264 110.1 237.746 110.048 249.701Z" fill="#f2f2f2" fill-rule="nonzero" opacity="1" stroke="none"/>
<path d="M44.1314 234.97C45.9938 229.034 50.229 223.59 56.0862 221.584C61.9437 219.577 70.5206 222.634 74.9242 227.023C82.9791 235.05 84.9448 262.629 79.4107 271.343C78.31 271.285 74.5117 271.242 73.3977 271.2L71.8217 265.948L71.8217 271.149C70.0468 271.094 68.258 271.056 66.4553 271.035C53.894 270.879 43.7063 260.815 43.3973 248.257C43.2531 242.476 43.3974 237.309 44.1314 234.97Z" fill="#2f2e41" fill-rule="nonzero" opacity="1" stroke="none"/>
<path d="M51.5031 241.805C51.5031 234.716 57.2501 228.969 64.3394 228.969C71.4286 228.969 77.1757 234.716 77.1757 241.805C77.1757 248.894 71.4286 254.641 64.3394 254.641C57.2501 254.641 51.5031 248.894 51.5031 241.805Z" fill="#ffb6b6" fill-rule="nonzero" opacity="1" stroke="none"/>
<path d="M53.2612 230.532L68.041 223.131L68.041 223.131C74.1944 225.904 78.3598 231.796 78.9213 238.522L79.2897 242.935L73.1007 241.359L72.4227 235.717L71.3717 240.919L68.5155 240.192L68.5426 231.432L65.6846 240.186L55.4835 237.842L53.2612 230.532Z" fill="#2f2e41" fill-rule="nonzero" opacity="1" stroke="none"/>
<path d="M98.4306 279.428C82.1948 297.901 54.139 299.929 35.4156 283.982L39.2789 273.202C41.0579 269.3 44.8454 266.7 49.1256 266.44L51.5833 266.289L57.4437 261.235C57.4437 261.235 73.2341 260.671 72.9999 260.401L82.5647 266.154L82.5567 266.115L86.3167 266.345C90.5973 266.603 94.3853 269.204 96.1635 273.107L98.4306 279.428Z" fill="#075e54" fill-rule="nonzero" opacity="1" stroke="none"/>
<path d="M15.2421 420.101C15.2421 395.226 35.4075 375.06 60.2828 375.06C85.1582 375.06 105.324 395.226 105.324 420.101C105.324 444.976 85.1582 465.142 60.2828 465.142C35.4075 465.142 15.2421 444.976 15.2421 420.101Z" fill="#f2f2f2" fill-rule="nonzero" opacity="1" stroke="none"/>
<path d="M44.6622 411.303C44.6622 403.363 51.0993 396.926 59.0397 396.926C66.9802 396.926 73.4172 403.363 73.4172 411.303C73.4172 419.244 66.9802 425.681 59.0397 425.681C51.0993 425.681 44.6622 419.244 44.6622 411.303Z" fill="#ffb6b6" fill-rule="nonzero" opacity="1" stroke="none"/>
<path d="M94.0734 450.237C77.8376 468.711 49.7818 470.738 31.0584 454.791L34.9216 444.011C36.7006 440.11 40.4881 437.509 44.7683 437.25L47.226 437.099L53.0864 432.044C53.0864 432.044 68.8769 431.48 68.6426 431.21L78.2074 436.964L78.1995 436.924L81.9595 437.154C86.24 437.412 90.028 440.014 91.8062 443.916L94.0734 450.237Z" fill="#075e54" fill-rule="nonzero" opacity="1" stroke="none"/>
<path d="M74.2032 402.387C72.9882 398.038 70.2279 394.282 66.4403 391.825C63.4218 389.894 59.6552 388.908 56.2356 389.929C52.816 390.95 49.9848 394.306 50.2086 397.932C48.9163 397.593 47.5432 398.017 46.6674 399.026C45.8094 400.039 45.2128 401.247 44.93 402.544C43.8327 406.609 43.9054 410.901 45.1398 414.927L45.0719 415.505C46.7446 415.06 48.1179 413.867 48.7926 412.273C49.5795 410.747 50.0323 409.055 50.8852 407.568C51.6331 406.003 53.124 404.926 54.8439 404.706L54.695 407.289C56.1486 406.54 57.6022 405.791 59.0558 405.042L58.0186 407.523L61.8269 405.932C61.685 406.727 61.5431 407.522 61.4012 408.317C62.0739 406.922 63.2883 405.863 64.762 405.387C66.2356 404.91 67.8401 405.058 69.2022 405.795C70.7203 406.817 71.8146 408.356 72.2804 410.125C72.7414 411.891 72.9889 413.705 73.0176 415.53C74.9792 411.434 75.4001 406.768 74.2032 402.387Z" fill="#2f2e41" fill-rule="nonzero" opacity="1" stroke="none"/>
<path d="M118.148 153.039L19.1019 153.039C17.7217 153.042 16.4455 152.307 15.7548 151.112C15.0641 149.917 15.0641 148.444 15.7548 147.249C16.4455 146.054 17.7217 145.319 19.1019 145.322L118.148 145.322C123.125 145.252 123.174 153.11 118.148 153.039Z" fill="#e4e4e4" fill-rule="nonzero" opacity="1" stroke="none"/>
<path d="M251.574 173.226L19.1019 173.226C16.9707 173.226 15.243 171.498 15.243 169.367C15.243 167.235 16.9707 165.508 19.1019 165.508L251.574 165.508C256.551 165.438 256.601 173.296 251.574 173.226Z" fill="#e4e4e4" fill-rule="nonzero" opacity="1" stroke="none"/>
<path d="M122.873 326.422L23.8264 326.422C21.6952 326.422 19.9675 324.694 19.9675 322.563C19.9675 320.432 21.6952 318.704 23.8264 318.704L122.873 318.704C127.849 318.635 127.899 326.492 122.873 326.422Z" fill="#e4e4e4" fill-rule="nonzero" opacity="1" stroke="none"/>
<path d="M256.299 346.608L23.8264 346.608C22.4463 346.61 21.17 345.875 20.4793 344.68C19.7886 343.485 19.7886 342.013 20.4793 340.818C21.17 339.623 22.4463 338.888 23.8264 338.89L256.299 338.89C261.276 338.821 261.325 346.678 256.299 346.608Z" fill="#e4e4e4" fill-rule="nonzero" opacity="1" stroke="none"/>
<path d="M118.148 497.066L19.1019 497.066C16.9707 497.066 15.243 495.339 15.243 493.208C15.243 491.076 16.9707 489.349 19.1019 489.349L118.148 489.349C123.125 489.279 123.174 497.137 118.148 497.066Z" fill="#e4e4e4" fill-rule="nonzero" opacity="1" stroke="none"/>
<path d="M251.574 517.253L19.1019 517.253C16.9707 517.253 15.243 515.525 15.243 513.394C15.243 511.262 16.9707 509.535 19.1019 509.535L251.574 509.535C256.551 509.465 256.601 517.323 251.574 517.253Z" fill="#e4e4e4" fill-rule="nonzero" opacity="1" stroke="none"/>
<path d="M303.944 396.945L368.944 396.945L352.944 349.945L308.944 350.945L303.944 396.945Z" fill="#9e616a" fill-rule="nonzero" opacity="1" stroke="none"/>
<path d="M356.399 667.798L343.57 667.798L337.467 618.315L356.401 618.316L356.399 667.798Z" fill="#9e616a" fill-rule="nonzero" opacity="1" stroke="none"/>
<path d="M363.3 692.157L354.197 692.157L352.572 683.562L348.411 692.157L324.267 692.157C321.892 692.157 319.793 690.612 319.086 688.345C318.379 686.077 319.229 683.613 321.183 682.263L340.464 668.948L340.464 660.259L360.743 661.47L363.3 692.157Z" fill="#2f2e41" fill-rule="nonzero" opacity="1" stroke="none"/>
<path d="M334.399 667.798L321.57 667.798L315.467 618.315L334.401 618.316L334.399 667.798Z" fill="#9e616a" fill-rule="nonzero" opacity="1" stroke="none"/>
<path d="M341.3 692.157L332.197 692.157L330.572 683.562L326.411 692.157L302.267 692.157C299.892 692.157 297.793 690.612 297.086 688.345C296.379 686.077 297.229 683.613 299.183 682.263L318.464 668.948L318.464 660.259L338.743 661.47L341.3 692.157Z" fill="#2f2e41" fill-rule="nonzero" opacity="1" stroke="none"/>
<path d="M304.136 387.945L368.944 386.945C368.944 386.945 390.721 432.842 381.94 461.196L356.504 544.46L335.595 651.337L316.364 645.5L310.976 637.397L314.944 622.945L313.305 614.854L306.944 540.945L306.944 539.945L303.944 508.945C290.44 462.801 294.033 434.951 304.136 387.945L304.136 387.945Z" fill="#2f2e41" fill-rule="nonzero" opacity="1" stroke="none"/>
<path d="M349.689 539.495L361.601 625.804L358.944 629.945L361.601 636.753L358.329 652.887L339.362 656.569L321.383 579.417L349.689 539.495Z" fill="#2f2e41" fill-rule="nonzero" opacity="1" stroke="none"/>
<path d="M305.881 374.541C305.865 374.541 305.85 374.542 305.835 374.542C304.734 374.547 303.76 373.833 303.433 372.783C300.294 362.863 296.905 350.685 298.591 348.999C299.324 348.37 300.181 347.902 301.107 347.625C303.124 346.86 304.718 346.256 303.47 342.511C302.577 339.833 305.37 336.863 303.963 335.046C302.169 332.73 302.591 330.51 303.963 329.046C305.252 327.671 301.54 321.292 303.611 314.753C303.745 314.332 303.687 313.874 303.453 313.499C300.854 309.333 293.277 299.952 302.512 290.789C310.997 282.371 314.626 265.919 317.044 264.714C317.39 264.541 317.656 264.242 317.787 263.878L320.989 255.102C321.354 254.108 322.3 253.447 323.359 253.445L348.185 253.445C348.951 253.443 349.677 253.791 350.154 254.391L361.844 269.003C361.99 269.184 362.109 269.385 362.198 269.599C363.746 273.296 377.121 306.078 370.384 318.59L369.148 320.882C363.204 331.89 360.744 336.446 363.298 338.999C365.651 341.352 364.647 343.096 364.048 344.137C363.862 344.46 363.652 344.826 363.688 344.989C364.378 348.097 362.63 348.547 361.79 348.763C361.733 348.778 361.667 348.795 361.606 348.812C361.814 349.091 362.045 349.351 362.298 349.591C362.904 350.09 363.269 350.824 363.299 351.609C363.141 352.484 362.617 353.249 361.859 353.714C361.473 354.037 361.035 354.402 361.027 354.647C361.022 354.791 361.19 354.975 361.29 355.071C361.724 355.488 362.317 355.967 362.944 356.475C364.761 357.946 366.82 359.612 366.904 361.211C366.933 361.775 366.711 362.322 366.298 362.706L361.625 367.377C361.288 367.968 362.832 371.628 363.527 372.451L363.849 372.831L363.615 373.03C364.029 373.708 364.087 374.545 363.769 375.273C363.38 376.104 362.536 376.625 361.619 376.6L305.881 374.541Z" fill="#3f3d56" fill-rule="nonzero" opacity="1" stroke="none"/>
<path d="M229.191 315.797C233.166 319.887 239.687 320.034 243.842 316.126C244.283 315.71 244.685 315.256 245.046 314.769L280.261 325.442L274.858 307.293L242.245 299.939C237.39 296.891 230.986 298.306 227.869 303.117C225.292 307.133 225.841 312.398 229.191 315.797Z" fill="#9e616a" fill-rule="nonzero" opacity="1" stroke="none"/>
<path d="M251.3 319.582L256.494 302.1L274.4 302.001L278.089 306.897L284.039 304.765L302.945 309.578L322.919 277.305C324.951 274.022 328.341 271.815 332.165 271.285C335.99 270.754 339.852 271.956 342.7 274.562L342.7 274.562C347.2 278.643 348.242 285.311 345.202 290.57L317.163 339.578L251.3 319.582Z" fill="#3f3d56" fill-rule="nonzero" opacity="1" stroke="none"/>
<path d="M272.061 390.002C277.761 390.196 282.564 385.782 282.851 380.085C282.88 379.48 282.855 378.874 282.777 378.273L315.561 361.56L299.087 352.222L270.481 369.524C264.868 370.691 261.233 376.15 262.32 381.779C263.246 386.459 267.291 389.874 272.061 390.002Z" fill="#9e616a" fill-rule="nonzero" opacity="1" stroke="none"/>
<path d="M290.622 377.408L282.25 361.206L295.089 348.724L301.141 349.697L303.953 344.036L320.918 334.402L312.948 297.294C312.138 293.519 313.052 289.579 315.441 286.546C317.83 283.513 321.447 281.703 325.307 281.607L325.307 281.607C331.379 281.43 336.751 285.514 338.205 291.412L351.959 346.173L290.622 377.408Z" fill="#3f3d56" fill-rule="nonzero" opacity="1" stroke="none"/>
<path d="M313.172 224.958C313.172 211.792 323.844 201.12 337.009 201.12C350.175 201.12 360.847 211.792 360.847 224.958C360.847 238.123 350.175 248.795 337.009 248.795C323.844 248.795 313.172 238.123 313.172 224.958Z" fill="#9e616a" fill-rule="nonzero" opacity="1" stroke="none"/>
<path d="M340.607 195.946L343.499 196.716L344.481 196.977L355.487 199.907C365.243 202.504 370.783 213.506 367.862 224.481C373.255 233.831 368.582 242.503 360.088 250.917C349.198 249.423 338.154 249.436 327.267 250.957L327.457 244.656L322.638 251.738C319.887 252.27 317.128 252.918 314.36 253.681C320.652 241.291 325.29 228.493 326.08 217.802L321.04 216.461L322.508 210.945L319.329 216.005L310.192 213.573L310.192 213.573C313.723 200.307 327.34 192.415 340.607 195.946Z" fill="#2f2e41" fill-rule="nonzero" opacity="1" stroke="none"/>
<path d="M349.696 199.454C349.696 193.254 354.722 188.228 360.922 188.228C367.122 188.228 372.148 193.254 372.148 199.454C372.148 205.654 367.122 210.68 360.922 210.68C354.722 210.68 349.696 205.654 349.696 199.454Z" fill="#2f2e41" fill-rule="nonzero" opacity="1" stroke="none"/>
<path d="M476.813 689.921C484.783 671.251 490.403 650.931 487.743 630.821C486.832 624.002 484.847 617.37 481.863 611.171C479.46 606.117 476.356 601.428 472.643 597.241C469.995 594.193 465.544 593.477 462.073 595.541C461.813 595.691 461.553 595.851 461.313 596.021C460.012 596.938 458.985 598.193 458.343 599.651C458.219 599.93 458.116 600.217 458.033 600.511C457.666 601.739 457.567 603.031 457.743 604.301C459.145 614.65 458.841 625.16 456.843 635.411C456.333 638.021 455.71 640.608 454.973 643.171C453.319 641.106 451.56 639.126 449.703 637.241C444.89 632.363 439.339 628.273 433.253 625.121L433.243 625.121C433.213 625.101 433.193 625.091 433.163 625.071C425.783 621.311 415.943 622.871 410.193 625.431C409.813 625.591 409.453 625.771 409.103 625.941C406.103 627.481 404.613 629.251 405.893 630.411C406.183 630.661 406.473 630.921 406.743 631.181C415.46 639.24 422.602 648.85 427.803 659.521L427.803 659.531C429.871 663.779 431.612 668.179 433.013 672.691C434.943 678.921 436.543 685.831 440.313 690.911C440.699 691.446 441.116 691.957 441.563 692.441L475.243 692.171C475.323 692.131 475.393 692.101 475.473 692.061L476.813 692.111C476.763 691.871 476.703 691.631 476.643 691.391L476.643 691.371C476.613 691.241 476.573 691.101 476.543 690.981C476.513 690.881 476.493 690.791 476.473 690.711C476.533 690.561 476.593 690.421 476.663 690.271C476.713 690.151 476.763 690.041 476.813 689.921Z" fill="#f0f0f0" fill-rule="nonzero" opacity="1" stroke="none"/>
<path d="M476.643 691.371C476.622 691.523 476.524 691.653 476.383 691.715C476.242 691.776 476.079 691.759 475.953 691.671C474.569 690.667 473.051 689.863 471.443 689.281C471.433 689.271 471.433 689.281 471.433 689.281C469.404 688.551 467.317 687.996 465.193 687.621C465.173 687.621 465.163 687.611 465.143 687.611C464.283 687.441 463.423 687.291 462.563 687.131C458.383 686.361 454.133 685.431 450.513 683.051C447.534 681.205 445.485 678.174 444.883 674.721C444.353 671.371 445.023 668.001 445.303 664.661C445.323 664.421 445.343 664.171 445.353 663.931C445.373 663.621 445.383 663.321 445.383 663.021C445.486 659.989 444.877 656.975 443.603 654.221C441.968 650.924 439.821 647.907 437.243 645.281C435.913 643.851 434.527 642.474 433.083 641.151L433.073 641.151C433.013 641.091 432.963 641.041 432.903 640.991C432.903 640.981 432.893 640.971 432.883 640.961C426.712 635.354 419.713 630.733 412.133 627.261C411.863 627.141 411.583 627.011 411.303 626.891C410.573 626.561 409.843 626.251 409.103 625.941C409.453 625.771 409.813 625.591 410.193 625.431C418.648 629.007 426.45 633.961 433.283 640.091C433.513 640.291 433.743 640.501 433.963 640.711C435.693 642.311 437.34 643.988 438.903 645.741C441.403 648.434 443.429 651.531 444.893 654.901C445.967 657.628 446.441 660.554 446.283 663.481C446.263 664.041 446.223 664.601 446.173 665.171C445.863 668.541 445.173 672.021 445.943 675.391C446.823 679.231 449.803 681.911 453.263 683.551C455.554 684.572 457.957 685.317 460.423 685.771C465.523 686.841 470.793 687.361 475.253 690.101L475.263 690.101C475.333 690.151 475.403 690.191 475.463 690.231C475.473 690.231 475.473 690.231 475.473 690.241C475.795 690.432 476.106 690.643 476.403 690.871C476.423 690.881 476.443 690.901 476.463 690.911C476.492 690.932 476.519 690.955 476.543 690.981C476.637 691.087 476.674 691.232 476.643 691.371Z" fill="#ffffff" fill-rule="nonzero" opacity="1" stroke="none"/>
<path d="M433.701 641.054C437.454 636.399 437.282 629.711 433.296 625.255C432.904 624.819 432.209 625.408 432.602 625.844C436.323 629.988 436.47 636.226 432.948 640.541C432.578 640.996 433.333 641.505 433.701 641.054Z" fill="#ffffff" fill-rule="nonzero" opacity="1" stroke="none"/>
<path d="M445.673 662.99C439.795 663.673 433.875 662.116 429.093 658.628C428.62 658.283 428.108 659.035 428.581 659.381C433.563 663.001 439.727 664.609 445.843 663.885C446.426 663.815 446.253 662.921 445.673 662.99Z" fill="#ffffff" fill-rule="nonzero" opacity="1" stroke="none"/>
<path d="M412.193 627.151C412.173 627.191 412.153 627.221 412.133 627.261C411.018 629.311 409.038 630.751 406.743 631.181C406.473 630.921 406.183 630.661 405.893 630.411C405.939 630.382 405.99 630.365 406.043 630.361C408.253 630.118 410.21 628.826 411.303 626.891C411.353 626.811 411.403 626.721 411.443 626.641C411.511 626.541 411.615 626.472 411.733 626.449C411.852 626.427 411.974 626.453 412.073 626.521C412.273 626.667 412.325 626.942 412.193 627.151Z" fill="#ffffff" fill-rule="nonzero" opacity="1" stroke="none"/>
<path d="M476.813 689.921C476.821 690.055 476.766 690.184 476.663 690.271C476.584 690.33 476.491 690.368 476.393 690.381C476.187 690.424 475.983 690.296 475.933 690.091C474.553 685.451 471.173 681.891 467.973 678.401C465.093 675.271 462.263 671.971 460.813 667.901C459.543 664.63 459.732 660.973 461.333 657.851C461.831 656.928 462.41 656.051 463.063 655.231C464.493 653.411 466.193 651.791 467.723 650.071C467.883 649.891 468.043 649.701 468.193 649.521C468.403 649.291 468.593 649.051 468.773 648.811C470.681 646.452 472.006 643.677 472.643 640.711C473.326 637.094 473.431 633.391 472.953 629.741C472.753 627.801 472.477 625.874 472.123 623.961C472.103 623.871 472.093 623.791 472.073 623.711C470.53 615.504 467.723 607.587 463.753 600.241C463.603 599.971 463.463 599.701 463.313 599.441C462.673 598.281 462.013 597.141 461.313 596.021C461.553 595.851 461.813 595.691 462.073 595.541C464.367 599.254 466.363 603.143 468.043 607.171C470.216 612.338 471.848 617.717 472.913 623.221C472.983 623.521 473.033 623.831 473.083 624.131C473.503 626.441 473.813 628.781 474.003 631.111C474.379 634.766 474.129 638.459 473.263 642.031C472.479 644.864 471.09 647.495 469.193 649.741C468.853 650.171 468.493 650.591 468.113 651.001C466.593 652.661 464.913 654.271 463.543 656.081C462.844 656.99 462.25 657.977 461.773 659.021C460.163 662.621 460.923 666.561 462.703 669.941C465.923 676.091 472.063 680.281 475.333 686.311C475.937 687.422 476.427 688.591 476.793 689.801C476.805 689.84 476.812 689.88 476.813 689.921Z" fill="#ffffff" fill-rule="nonzero" opacity="1" stroke="none"/>
<path d="M472.67 624.236C478.469 622.78 482.359 617.336 481.859 611.378C481.808 610.794 480.898 610.846 480.949 611.431C481.426 616.98 477.787 622.049 472.377 623.374C471.808 623.514 472.104 624.376 472.67 624.236Z" fill="#ffffff" fill-rule="nonzero" opacity="1" stroke="none"/>
<path d="M469.022 648.96C463.917 645.966 460.128 641.158 458.41 635.495C458.24 634.934 457.378 635.227 457.548 635.787C459.346 641.677 463.3 646.672 468.619 649.776C469.126 650.071 469.526 649.253 469.022 648.96Z" fill="#ffffff" fill-rule="nonzero" opacity="1" stroke="none"/>
<path d="M463.863 600.191C463.823 600.211 463.793 600.221 463.753 600.241C461.952 601.063 459.904 601.159 458.033 600.511C458.116 600.217 458.219 599.93 458.343 599.651C459.968 600.208 461.742 600.133 463.313 599.441C463.403 599.411 463.483 599.371 463.573 599.331C463.811 599.249 464.07 599.374 464.153 599.611C464.221 599.85 464.096 600.102 463.863 600.191Z" fill="#ffffff" fill-rule="nonzero" opacity="1" stroke="none"/>
<path d="M507.371 694.111L159.383 694.111C158.957 694.112 158.562 693.885 158.349 693.516C158.135 693.147 158.135 692.692 158.349 692.324C158.562 691.955 158.957 691.728 159.383 691.729L507.371 691.729C507.797 691.728 508.191 691.955 508.405 692.324C508.618 692.692 508.618 693.147 508.405 693.516C508.191 693.885 507.797 694.112 507.371 694.111Z" fill="#cccccc" fill-rule="nonzero" opacity="1" stroke="none"/>
</g>
</svg>
