<svg height="100%" stroke-miterlimit="10" style="fill-rule:nonzero;clip-rule:evenodd;stroke-linecap:round;stroke-linejoin:round;" version="1.1" viewBox="21.4728 203.156 977.542 601.067" width="100%" xml:space="preserve" xmlns="http://www.w3.org/2000/svg">
<defs/>
<g id="Texture">
<path d="M996.515 487.684L24.1844 803.723" fill="none" opacity="1" stroke="#686868" stroke-linecap="butt" stroke-linejoin="miter" stroke-width="1"/>
<path d="M997.515 445.015L24.1844 762.487L997.515 445.015Z" fill="none" opacity="1" stroke="#686868" stroke-linecap="butt" stroke-linejoin="miter" stroke-width="1"/>
<path d="M997.515 403.65L24.1844 719.745" fill="none" opacity="1" stroke="#686868" stroke-linecap="butt" stroke-linejoin="miter" stroke-width="1"/>
<path d="M997.515 361.182L24.1844 677.764" fill="none" opacity="1" stroke="#686868" stroke-linecap="butt" stroke-linejoin="miter" stroke-width="1"/>
<path d="M997.515 319.492L24.1844 635.888" fill="none" opacity="1" stroke="#686868" stroke-linecap="butt" stroke-linejoin="miter" stroke-width="1"/>
<path d="M998.515 276.802L24.1844 593.618" fill="none" opacity="1" stroke="#686868" stroke-linecap="butt" stroke-linejoin="miter" stroke-width="1"/>
<path d="M998.515 234.849L24.1844 552.154" fill="none" opacity="1" stroke="#686868" stroke-linecap="butt" stroke-linejoin="miter" stroke-width="1"/>
<path d="M964.29 204.211L24.1844 509.649" fill="none" opacity="1" stroke="#686868" stroke-linecap="butt" stroke-linejoin="miter" stroke-width="1"/>
<path d="M834.702 204.211L21.9728 468.569" fill="none" opacity="1" stroke="#686868" stroke-linecap="butt" stroke-linejoin="miter" stroke-width="1"/>
<path d="M706.023 204.211L24.1844 426.303" fill="none" opacity="1" stroke="#686868" stroke-linecap="butt" stroke-linejoin="miter" stroke-width="1"/>
<path d="M576.94 204.211L24.1844 383.588" fill="none" opacity="1" stroke="#686868" stroke-linecap="butt" stroke-linejoin="miter" stroke-width="1"/>
<path d="M447.322 204.211L24.1844 341.721" fill="none" opacity="1" stroke="#686868" stroke-linecap="butt" stroke-linejoin="miter" stroke-width="1"/>
<path d="M318.62 204.211L24.1844 300.045" fill="none" opacity="1" stroke="#686868" stroke-linecap="butt" stroke-linejoin="miter" stroke-width="1"/>
<path d="M188.919 204.211L24.1844 257.609" fill="none" opacity="1" stroke="#686868" stroke-linecap="butt" stroke-linejoin="miter" stroke-width="1"/>
<path d="M60.8591 203.656L24.1844 215.826" fill="none" opacity="1" stroke="#686868" stroke-linecap="butt" stroke-linejoin="miter" stroke-width="1"/>
<path d="M68.7087 204.686L68.92 798.75" fill="none" opacity="1" stroke="#686868" stroke-linecap="butt" stroke-linejoin="miter" stroke-width="1"/>
<path d="M122.68 204.686L122.541 779.99" fill="none" opacity="1" stroke="#686868" stroke-linecap="butt" stroke-linejoin="miter" stroke-width="1"/>
<path d="M176.919 204.686L177.021 762.487" fill="none" opacity="1" stroke="#686868" stroke-linecap="butt" stroke-linejoin="miter" stroke-width="1"/>
<path d="M230.584 204.686L230.868 746.239" fill="none" opacity="1" stroke="#686868" stroke-linecap="butt" stroke-linejoin="miter" stroke-width="1"/>
<path d="M285.019 204.686L284.868 727.986" fill="none" opacity="1" stroke="#686868" stroke-linecap="butt" stroke-linejoin="miter" stroke-width="1"/>
<path d="M338.58 204.686L338.974 710.947" fill="none" opacity="1" stroke="#686868" stroke-linecap="butt" stroke-linejoin="miter" stroke-width="1"/>
<path d="M392.824 204.686L392.549 693.247" fill="none" opacity="1" stroke="#686868" stroke-linecap="butt" stroke-linejoin="miter" stroke-width="1"/>
<path d="M446.801 204.686L446.322 674.123" fill="none" opacity="1" stroke="#686868" stroke-linecap="butt" stroke-linejoin="miter" stroke-width="1"/>
<path d="M500.999 204.686L500.999 656.389" fill="none" opacity="1" stroke="#686868" stroke-linecap="butt" stroke-linejoin="miter" stroke-width="1"/>
<path d="M554.425 204.686L554.47 640.92" fill="none" opacity="1" stroke="#686868" stroke-linecap="butt" stroke-linejoin="miter" stroke-width="1"/>
<path d="M608.969 204.686L608.264 622.887" fill="none" opacity="1" stroke="#686868" stroke-linecap="butt" stroke-linejoin="miter" stroke-width="1"/>
<path d="M662.272 204.686L662.447 604.614" fill="none" opacity="1" stroke="#686868" stroke-linecap="butt" stroke-linejoin="miter" stroke-width="1"/>
<path d="M716.83 204.686L716.269 587.821" fill="none" opacity="1" stroke="#686868" stroke-linecap="butt" stroke-linejoin="miter" stroke-width="1"/>
<path d="M770.732 204.686L770.323 569.839" fill="none" opacity="1" stroke="#686868" stroke-linecap="butt" stroke-linejoin="miter" stroke-width="1"/>
<path d="M824.291 204.686L824.449 552.154" fill="none" opacity="1" stroke="#686868" stroke-linecap="butt" stroke-linejoin="miter" stroke-width="1"/>
<path d="M878.663 204.686L878.721 534.522" fill="none" opacity="1" stroke="#686868" stroke-linecap="butt" stroke-linejoin="miter" stroke-width="1"/>
<path d="M932.515 204.686L932.399 516.597" fill="none" opacity="1" stroke="#686868" stroke-linecap="butt" stroke-linejoin="miter" stroke-width="1"/>
<path d="M986.578 204.686L986.27 500" fill="none" opacity="1" stroke="#686868" stroke-linecap="butt" stroke-linejoin="miter" stroke-width="1"/>
<path d="M122.68 225.627L177.021 207.923L177.021 249.99L122.68 267.686L122.68 225.627Z" fill="#a3a3a3" fill-rule="nonzero" opacity="1" stroke="#686868" stroke-linecap="butt" stroke-linejoin="miter" stroke-width="1"/>
<path d="M230.526 274.313L284.868 256.609L284.868 298.675L230.526 316.372L230.526 274.313Z" fill="#a3a3a3" fill-rule="nonzero" opacity="1" stroke="#686868" stroke-linecap="butt" stroke-linejoin="miter" stroke-width="1"/>
<path d="M392.981 221.915L447.322 204.211L447.322 246.277L392.981 263.974L392.981 221.915Z" fill="#a3a3a3" fill-rule="nonzero" opacity="1" stroke="#686868" stroke-linecap="butt" stroke-linejoin="miter" stroke-width="1"/>
<path d="M554.769 295.67L609.11 277.966L609.11 320.032L554.769 337.729L554.769 295.67Z" fill="#a3a3a3" fill-rule="nonzero" opacity="1" stroke="#686868" stroke-linecap="butt" stroke-linejoin="miter" stroke-width="1"/>
</g>
</svg>
